<?xml version="1.0" encoding="UTF-8" standalone="no"?>
<svg
   xmlns:dc="http://purl.org/dc/elements/1.1/"
   xmlns:cc="http://creativecommons.org/ns#"
   xmlns:rdf="http://www.w3.org/1999/02/22-rdf-syntax-ns#"
   xmlns:svg="http://www.w3.org/2000/svg"
   xmlns="http://www.w3.org/2000/svg"
   xmlns:sodipodi="http://sodipodi.sourceforge.net/DTD/sodipodi-0.dtd"
   xmlns:inkscape="http://www.inkscape.org/namespaces/inkscape"
   version="1.1"
   id="svg2"
   xml:space="preserve"
   width="160"
   height="120"
   viewBox="0 0 400 300"
   sodipodi:docname="logo.eps"><metadata
     id="metadata8"><rdf:RDF><cc:Work
         rdf:about=""><dc:format>image/svg+xml</dc:format><dc:type
           rdf:resource="http://purl.org/dc/dcmitype/StillImage" /></cc:Work></rdf:RDF></metadata><defs
     id="defs6" /><sodipodi:namedview
     pagecolor="#ffffff"
     bordercolor="#666666"
     borderopacity="1"
     objecttolerance="10"
     gridtolerance="10"
     guidetolerance="10"
     inkscape:pageopacity="0"
     inkscape:pageshadow="2"
     inkscape:window-width="640"
     inkscape:window-height="480"
     id="namedview4" /><g
     id="g10"
     inkscape:groupmode="layer"
     inkscape:label="ink_ext_XXXXXX"
     transform="matrix(1.3333333,0,0,-1.3333333,0,275.96)"><g
       id="g12"
       transform="scale(0.1)"><path
         d="m 1625.4,1263.27 c -14.92,111.71 -188.91,117.66 -215.43,130.97 -26.52,13.3 -37.68,50.03 -37.68,50.03 l -93.85,525.45 c 4.01,3.11 6.28,7.5 5.59,11.96 -0.41,2.51 -1.72,4.68 -3.61,6.44 1.25,2.25 1.86,4.72 1.46,7.24 -0.48,3.07 -2.33,5.63 -4.96,7.53 1.93,2.61 2.91,5.63 2.41,8.71 -0.46,2.98 -2.21,5.49 -4.71,7.38 1.82,2.56 2.7,5.49 2.24,8.47 -0.46,2.96 -2.2,5.47 -4.67,7.35 4.15,3.13 6.53,7.5 5.84,11.95 -1.15,7.34 -10.19,12.03 -20.19,10.46 l -139.38,-21.83 c -10,-1.57 -17.17,-8.79 -16.01,-16.15 0.67,-4.28 4.07,-7.62 8.74,-9.37 -1.97,-2.63 -2.95,-5.66 -2.47,-8.76 0.47,-2.98 2.22,-5.49 4.72,-7.38 -1.81,-2.56 -2.7,-5.48 -2.24,-8.46 0.5,-3.08 2.34,-5.65 4.98,-7.55 -1.95,-2.62 -2.9,-5.63 -2.43,-8.7 0.39,-2.51 1.71,-4.69 3.6,-6.44 -1.25,-2.25 -1.86,-4.72 -1.45,-7.23 0.7,-4.48 4.2,-7.96 9,-9.68 l 71.1,-529.01 c 0,0 0.62,-38.4 -20.58,-59.17 -21.18,-20.77 -185.022,-79.65 -165.07,-190.57 L 1181.26,77.1016 C 1190.2,20.0391 1335.95,-3.44141 1504.87,23.0313 1673.79,49.4805 1805.38,116.43 1796.44,173.5 L 1625.4,1263.27"
         style="fill:#ffffff;fill-opacity:1;fill-rule:nonzero;stroke:none"
         id="path14" /><path
         d="m 1625.4,1263.27 c -14.92,111.71 -188.91,117.66 -215.43,130.97 -26.52,13.3 -37.68,50.03 -37.68,50.03 l -93.85,525.45 c 4.01,3.11 6.28,7.5 5.59,11.96 -0.41,2.51 -1.72,4.68 -3.61,6.44 1.25,2.25 1.86,4.72 1.46,7.24 -0.48,3.07 -2.33,5.63 -4.96,7.53 1.93,2.61 2.91,5.63 2.41,8.71 -0.46,2.98 -2.21,5.49 -4.71,7.38 1.82,2.56 2.7,5.49 2.24,8.47 -0.46,2.96 -2.2,5.47 -4.67,7.35 4.15,3.13 6.53,7.5 5.84,11.95 -1.15,7.34 -10.19,12.03 -20.19,10.46 l -139.38,-21.83 c -10,-1.57 -17.17,-8.79 -16.01,-16.15 0.67,-4.28 4.07,-7.62 8.74,-9.37 -1.97,-2.63 -2.95,-5.66 -2.47,-8.76 0.47,-2.98 2.22,-5.49 4.72,-7.38 -1.81,-2.56 -2.7,-5.48 -2.24,-8.46 0.5,-3.08 2.34,-5.65 4.98,-7.55 -1.95,-2.62 -2.9,-5.63 -2.43,-8.7 0.39,-2.51 1.71,-4.69 3.6,-6.44 -1.25,-2.25 -1.86,-4.72 -1.45,-7.23 0.7,-4.48 4.2,-7.96 9,-9.68 l 71.1,-529.01 c 0,0 0.62,-38.4 -20.58,-59.17 -21.18,-20.77 -185.022,-79.65 -165.07,-190.57 L 1181.26,77.1016 c 8.94,-57.0625 154.69,-80.54301 323.61,-54.0703 168.92,26.4492 300.51,93.3987 291.57,150.4687 z"
         style="fill:none;stroke:#e31d25;stroke-width:24.3616;stroke-linecap:round;stroke-linejoin:round;stroke-miterlimit:4;stroke-dasharray:none;stroke-opacity:1"
         id="path16" /><path
         d="m 443.383,251.48 c 0,-21.339 2.984,-36.671 8.957,-46 5.965,-9.32 14.086,-13.98 24.359,-13.98 10.563,0 18.735,4.57 24.528,13.699 5.785,9.129 8.679,25.52 8.679,49.16 0,19.903 -3.019,34.43 -9.062,43.61 -6.039,9.179 -14.235,13.769 -24.578,13.769 -9.914,0 -17.868,-4.668 -23.871,-13.976 -6.008,-9.332 -9.012,-24.762 -9.012,-46.282 z m -49.153,0.282 c 0,34.508 7.231,61.379 21.704,80.597 14.464,19.211 34.613,28.832 60.437,28.832 26.481,0 46.883,-9.441 61.207,-28.332 14.32,-18.879 21.485,-45.339 21.485,-79.359 0,-24.711 -3.129,-44.961 -9.383,-60.77 -6.262,-15.808 -15.305,-28.121 -27.129,-36.91 -11.832,-8.8 -26.574,-13.191 -44.227,-13.191 -17.937,0 -32.789,3.793 -44.547,11.391 -11.75,7.582 -21.281,19.609 -28.589,36.039 -7.305,16.441 -10.958,37 -10.958,61.703"
         style="fill:#e31d25;fill-opacity:1;fill-rule:nonzero;stroke:none"
         id="path18" /><path
         d="m 651.367,267.48 h 12.047 c 9.477,0 16.133,2.18 19.965,6.559 3.832,4.371 5.754,9.973 5.754,16.789 0,6.633 -1.668,12.262 -4.992,16.883 -3.328,4.609 -9.59,6.91 -18.774,6.91 h -14 z m -49.375,90.11 h 81.715 c 17.797,0 31.121,-5.621 39.984,-16.871 8.864,-11.239 13.297,-27.25 13.297,-48.008 0,-21.34 -4.832,-38.012 -14.488,-50.031 -9.656,-12.008 -24.398,-18.02 -44.219,-18.02 h -26.914 v -78.43 h -49.375 v 211.36"
         style="fill:#e31d25;fill-opacity:1;fill-rule:nonzero;stroke:none"
         id="path20" /><path
         d="M 779.262,357.59 H 911 v -45.129 h -82.469 v -33.59 h 76.504 V 235.762 H 828.531 V 194.09 h 84.86 V 146.23 H 779.262 v 211.36"
         style="fill:#e31d25;fill-opacity:1;fill-rule:nonzero;stroke:none"
         id="path22" /><path
         d="m 956.859,357.59 h 45.901 l 59.91,-116.93 V 357.59 H 1109 V 146.23 h -46.33 l -59.58,116.051 V 146.23 h -46.231 v 211.36"
         style="fill:#e31d25;fill-opacity:1;fill-rule:nonzero;stroke:none"
         id="path24" /><path
         d="M 1932.15,364.809 V 149.852 h -44.71 v 140.847 c -7.23,-7.308 -14.24,-13.219 -21,-17.73 -6.76,-4.52 -15.25,-8.848 -25.44,-12.981 v 48.16 c 15.04,6.43 26.72,14.172 35.04,23.211 8.33,9.032 14.83,20.192 19.54,33.45 h 36.57"
         style="fill:#e31d25;fill-opacity:1;fill-rule:nonzero;stroke:none"
         id="path26" /><path
         d="m 2098.46,149.852 h -132.61 c 1.52,17.386 6.13,33.757 13.84,49.089 7.7,15.321 22.15,33.418 43.35,54.278 12.95,12.781 21.23,22.492 24.85,29.121 3.61,6.629 5.42,12.93 5.42,18.879 0,6.441 -1.79,11.953 -5.37,16.519 -3.57,4.563 -8.09,6.84 -13.51,6.84 -5.64,0 -10.25,-2.348 -13.83,-7.066 -3.59,-4.703 -5.99,-13.024 -7.22,-24.942 l -44.28,4.77 c 1.74,16.519 4.92,29.43 9.55,38.711 4.63,9.258 11.16,16.371 19.59,21.328 8.43,4.953 20.09,7.43 35,7.43 15.55,0 27.65,-2.368 36.3,-7.071 8.64,-4.707 15.44,-11.949 20.4,-21.687 4.95,-9.77 7.43,-20.699 7.43,-32.813 0,-12.879 -2.84,-25.179 -8.51,-36.91 -5.69,-11.719 -16.02,-24.598 -30.99,-38.629 -8.9,-8.179 -14.85,-13.89 -17.85,-17.16 -3,-3.269 -6.53,-7.551 -10.58,-12.828 h 69.02 v -47.859"
         style="fill:#e31d25;fill-opacity:1;fill-rule:nonzero;stroke:none"
         id="path28" /><path
         d="m 2199.02,203.039 -11.59,50.152 -11.47,-50.152 z m 6.73,-30.168 h -36.83 l -5.13,-23.019 h -33.13 l 39.47,139.5 h 35.4 l 39.45,-139.5 h -33.97 l -5.26,23.019"
         style="fill:#e31d25;fill-opacity:1;fill-rule:nonzero;stroke:none"
         id="path30" /><path
         d="m 2269.61,289.352 h 42.67 l 16.45,-84.883 16.34,84.883 h 42.64 v -139.5 h -26.57 V 256.23 l -20.48,-106.378 h -24.05 L 2296.18,256.23 V 149.852 h -26.57 v 139.5"
         style="fill:#e31d25;fill-opacity:1;fill-rule:nonzero;stroke:none"
         id="path32" /><path
         d="m 0,1304.65 1469.6,-95.55 1469.59,95.55 -96.41,-473.81 92.56,-473.801 -1469.6,99.539 L 0,361.02 92.5742,830.84 0,1304.65"
         style="fill:#e31d25;fill-opacity:1;fill-rule:nonzero;stroke:none"
         id="path34" /><path
         d="m 2872.26,413.98 -1403.19,95.051 -3.26,0.231 -3.28,-0.223 -1399.3737,-91.238 79.3207,402.578 2.043,10.422 -2.032,10.437 -79.445,406.642 1403.357,-91.25 3.2,-0.2 3.2,0.2 1402.8,91.21 -82.68,-406.192 -2.13,-10.589 2.05,-10.61 79.42,-406.469 v 0"
         style="fill:#e31d25;fill-opacity:1;fill-rule:nonzero;stroke:none"
         id="path36" /><path
         d="m 2872.26,413.98 -1403.19,95.051 -3.26,0.231 -3.28,-0.223 -1399.3737,-91.238 79.3207,402.578 2.043,10.422 -2.032,10.437 -79.445,406.642 1403.357,-91.25 3.2,-0.2 3.2,0.2 1402.8,91.21 -82.68,-406.192 -2.13,-10.589 2.05,-10.61 79.42,-406.469 z"
         style="fill:none;stroke:#ffffff;stroke-width:24.8387;stroke-linecap:butt;stroke-linejoin:miter;stroke-miterlimit:4;stroke-dasharray:none;stroke-opacity:1"
         id="path38" /><path
         d="M 213.777,1111.59 H 343.984 V 859.078 H 547.195 V 776.59 H 213.777 v 335"
         style="fill:#ffffff;fill-opacity:1;fill-rule:nonzero;stroke:none"
         id="path40" /><path
         d="M 611.578,1111.59 H 742.07 v -335 H 611.578 v 335"
         style="fill:#ffffff;fill-opacity:1;fill-rule:nonzero;stroke:none"
         id="path42" /><path
         d="m 1109.98,878.512 c 10.35,14.769 15.52,36.859 15.52,66.269 0,33.821 -7.9,57.959 -23.71,72.439 -15.81,14.47 -37.61,21.71 -65.39,21.71 -25.87,0 -46.849,-7.39 -62.947,-22.17 -16.094,-14.78 -24.144,-37.862 -24.144,-69.24 0,-36.559 7.855,-62.231 23.566,-77.008 15.715,-14.782 37.275,-22.172 64.675,-22.172 8.81,0 17.15,0.691 25,2.058 -10.91,8.383 -28.16,16.301 -51.73,23.774 l 20.41,37.238 c 11.49,-1.68 20.45,-3.73 26.87,-6.16 6.42,-2.441 18.92,-8.84 37.51,-19.199 4.4,-2.442 9.2,-4.949 14.37,-7.539 z m 99.74,-53.024 c 16.29,-8.988 26.92,-14.617 31.91,-16.91 7.47,-3.348 17.53,-7.226 30.17,-11.648 l -36.21,-58.051 c -18.21,7.012 -36.22,15.359 -54.04,25.031 -17.82,9.672 -30.28,16.942 -37.37,21.82 -28.74,-9.902 -64.77,-14.851 -108.07,-14.851 -64.001,0 -114.493,13.25 -151.469,39.762 -43.696,31.379 -65.539,75.488 -65.539,132.308 0,55.153 19.117,97.991 57.343,128.541 38.227,30.55 91.641,45.82 160.245,45.82 69.94,0 123.93,-14.93 161.96,-44.79 38.04,-29.86 57.06,-72.598 57.06,-128.2 0,-49.511 -15.33,-89.121 -45.99,-118.832"
         style="fill:#ffffff;fill-opacity:1;fill-rule:nonzero;stroke:none"
         id="path44" /><path
         d="m 1600.04,1111.59 h 129.92 V 912 c 0,-19.789 -3.88,-38.48 -11.64,-56.059 -7.76,-17.582 -19.93,-32.961 -36.5,-46.132 -16.58,-13.168 -33.97,-22.411 -52.17,-27.739 -25.29,-7.461 -55.67,-11.191 -91.11,-11.191 -20.51,0 -42.89,1.141 -67.12,3.422 -24.24,2.289 -44.51,6.808 -60.79,13.59 -16.29,6.781 -31.19,16.398 -44.69,28.879 -13.51,12.492 -22.76,25.351 -27.74,38.601 -8.05,21.309 -12.07,40.188 -12.07,56.629 v 199.59 h 129.91 V 907.25 c 0,-18.27 6.37,-32.539 19.12,-42.809 12.74,-10.281 30.42,-15.41 53.02,-15.41 22.43,0 40,5.059 52.75,15.18 12.74,10.117 19.11,24.469 19.11,43.039 v 204.34"
         style="fill:#ffffff;fill-opacity:1;fill-rule:nonzero;stroke:none"
         id="path46" /><path
         d="m 1930.01,943.41 c 0,-33.82 7.9,-58.121 23.71,-72.898 15.81,-14.782 37.32,-22.172 64.53,-22.172 27.97,0 49.62,7.238 64.95,21.711 15.34,14.469 23,40.449 23,77.929 0,31.532 -8.01,54.57 -24,69.12 -16,14.55 -37.7,21.83 -65.1,21.83 -26.26,0 -47.33,-7.39 -63.23,-22.17 -15.91,-14.78 -23.86,-39.229 -23.86,-73.35 z m -130.21,0.449 c 0,54.692 19.16,97.281 57.49,127.751 38.32,30.46 91.68,45.7 160.09,45.7 70.14,0 124.17,-14.97 162.11,-44.9 37.94,-29.94 56.92,-71.88 56.92,-125.808 0,-39.153 -8.29,-71.262 -24.87,-96.313 -16.57,-25.07 -40.52,-44.559 -71.85,-58.508 -31.33,-13.941 -70.38,-20.902 -117.13,-20.902 -47.52,0 -86.86,6.012 -117.99,18.051 -31.14,12.031 -56.39,31.082 -75.74,57.129 -19.36,26.05 -29.03,58.652 -29.03,97.8"
         style="fill:#ffffff;fill-opacity:1;fill-rule:nonzero;stroke:none"
         id="path48" /><path
         d="m 2439.04,975.859 h 54.91 c 5.93,0 17.43,1.52 34.49,4.571 8.62,1.371 15.66,4.871 21.12,10.511 5.46,5.629 8.19,12.109 8.19,19.419 0,10.82 -4.3,19.12 -12.93,24.91 -8.62,5.79 -24.82,8.68 -48.58,8.68 h -57.2 z M 2308.26,776.59 v 335 h 217.01 c 40.25,0 71,-2.73 92.27,-8.22 21.27,-5.49 38.42,-15.65 51.45,-30.51 13.03,-14.85 19.55,-32.95 19.55,-54.27 0,-18.59 -5,-34.621 -14.96,-48.102 -9.97,-13.488 -23.68,-24.418 -41.13,-32.797 -11.11,-5.332 -26.36,-9.75 -45.72,-13.25 15.51,-4.121 26.81,-8.242 33.9,-12.351 4.78,-2.75 11.71,-8.621 20.82,-17.61 9.09,-9 15.17,-15.941 18.24,-20.82 l 63.04,-97.07 h -147.11 l -69.6,102.379 c -8.82,13.25 -16.67,21.851 -23.57,25.82 -9.39,5.172 -20.03,7.77 -31.9,7.77 h -11.51 V 776.59 h -130.78"
         style="fill:#ffffff;fill-opacity:1;fill-rule:nonzero;stroke:none"
         id="path50" /><path
         d="m 824.973,597.941 73.804,2.93 c 1.598,-7.59 4.852,-13.371 9.762,-17.34 7.988,-6.429 19.406,-9.652 34.25,-9.652 11.074,0 19.609,1.652 25.602,4.941 5.996,3.282 8.988,7.102 8.988,11.43 0,4.121 -2.852,7.801 -8.563,11.051 -5.707,3.25 -18.949,6.32 -39.73,9.211 -34.02,4.84 -58.281,11.269 -72.777,19.289 -14.614,8.019 -21.918,18.238 -21.918,30.668 0,8.16 3.738,15.871 11.214,23.133 7.477,7.257 18.719,12.957 33.735,17.117 15.012,4.16 35.594,6.23 61.734,6.23 32.078,0 56.539,-3.769 73.376,-11.32 16.84,-7.551 26.86,-19.559 30.06,-36.027 l -73.123,-2.711 c -1.946,7.148 -6.028,12.347 -12.246,15.597 -6.219,3.25 -14.809,4.883 -25.774,4.883 -9.015,0 -15.808,-1.211 -20.375,-3.633 -4.57,-2.418 -6.847,-5.359 -6.847,-8.828 0,-2.531 1.882,-4.808 5.648,-6.832 3.652,-2.098 12.328,-4.039 26.027,-5.848 33.91,-4.621 58.196,-9.3 72.87,-14.031 14.67,-4.738 25.34,-10.597 32.02,-17.609 6.68,-7.008 10.02,-14.852 10.02,-23.52 0,-10.179 -4.45,-19.57 -13.36,-28.172 -8.9,-8.589 -21.35,-15.109 -37.33,-19.558 -15.985,-4.442 -36.134,-6.66 -60.446,-6.66 -42.703,0 -72.27,5.199 -88.707,15.601 -16.442,10.399 -25.746,23.629 -27.914,39.66"
         style="fill:#ffffff;fill-opacity:1;fill-rule:nonzero;stroke:none"
         id="path52" /><path
         d="m 1074.13,704.238 h 235.81 V 665.02 h -79.11 V 545.391 h -77.58 V 665.02 h -79.12 v 39.218"
         style="fill:#ffffff;fill-opacity:1;fill-rule:nonzero;stroke:none"
         id="path54" /><path
         d="m 1400.87,624.488 c 0,-16.039 4.71,-27.558 14.13,-34.566 9.42,-7 22.24,-10.512 38.45,-10.512 16.66,0 29.56,3.43 38.7,10.289 9.13,6.871 13.7,19.18 13.7,36.961 0,14.949 -4.78,25.879 -14.31,32.781 -9.53,6.899 -22.45,10.34 -38.78,10.34 -15.64,0 -28.2,-3.5 -37.67,-10.511 -9.48,-7.008 -14.22,-18.598 -14.22,-34.782 z m -77.57,0.211 c 0,25.942 11.41,46.129 34.25,60.582 22.83,14.438 54.63,21.668 95.38,21.668 41.79,0 73.97,-7.097 96.58,-21.289 22.61,-14.199 33.91,-34.082 33.91,-59.648 0,-18.571 -4.94,-33.801 -14.82,-45.684 -9.87,-11.879 -24.14,-21.129 -42.81,-27.726 -18.66,-6.622 -41.92,-9.922 -69.77,-9.922 -28.32,0 -51.75,2.851 -70.3,8.558 -18.56,5.711 -33.6,14.731 -45.12,27.09 -11.54,12.352 -17.3,27.813 -17.3,46.371"
         style="fill:#ffffff;fill-opacity:1;fill-rule:nonzero;stroke:none"
         id="path56" /><path
         d="m 1704.15,639.879 h 32.71 c 3.53,0 10.38,0.723 20.54,2.16 5.14,0.652 9.34,2.313 12.59,4.992 3.25,2.668 4.88,5.739 4.88,9.207 0,5.133 -2.57,9.071 -7.7,11.813 -5.14,2.738 -14.79,4.121 -28.95,4.121 h -34.07 z m -77.92,-94.488 v 158.847 h 129.29 c 23.97,0 42.3,-1.297 54.97,-3.898 12.67,-2.602 22.89,-7.418 30.65,-14.461 7.77,-7.051 11.64,-15.629 11.64,-25.738 0,-8.813 -2.97,-16.422 -8.9,-22.809 -5.94,-6.391 -14.11,-11.582 -24.5,-15.551 -6.64,-2.531 -15.71,-4.621 -27.25,-6.281 9.24,-1.961 15.98,-3.91 20.19,-5.859 2.86,-1.301 6.99,-4.09 12.41,-8.352 5.42,-4.269 9.04,-7.559 10.87,-9.867 l 37.56,-46.031 h -87.65 l -41.47,48.539 c -5.25,6.289 -9.93,10.371 -14.04,12.25 -5.6,2.449 -11.92,3.679 -19,3.679 h -6.85 v -64.468 h -77.92"
         style="fill:#ffffff;fill-opacity:1;fill-rule:nonzero;stroke:none"
         id="path58" /><path
         d="m 1897.82,704.238 h 207.89 V 670.32 H 1975.57 V 645.078 H 2096.3 V 612.68 h -120.73 v -31.321 h 133.91 v -35.968 h -211.66 v 158.847"
         style="fill:#ffffff;fill-opacity:1;fill-rule:nonzero;stroke:none"
         id="path60" /><path
         d="m 1296.84,260.719 c -5.47,4.23 -2.98,7.121 4.2,7.793 13.34,1.578 26.53,4.218 39.19,7.117 11.91,21.512 22.81,39.992 29.76,48.902 3.61,5.199 8.4,5.539 11.39,1.649 6.65,-9.102 8.34,-20.711 -0.4,-40.68 18.47,3.031 26.51,-2.27 30.97,-6.289 3.93,-3.75 2.39,-6.492 -4.73,-7.531 -10.6,-0.45 -25.16,-3.649 -36.83,-6.782 -15.09,-26.269 -37.2,-64.347 -50.96,-96.546 -11.93,-27.993 -3.55,-49.051 16.5,-46.872 21.46,2.391 44.9,31.321 58.64,60.27 2.23,4.648 7.35,6.102 9.97,1.449 3.18,-5.289 1.73,-11.98 -1.84,-20.758 -4.69,-11.101 -31.54,-46.64 -69.67,-51.089 -31.44,-3.84 -60.38,18.57 -43.46,62.378 7.42,19.059 23.06,51.532 39.45,82.301 -16.14,-2.351 -27.83,1.367 -32.18,4.688"
         style="fill:#e31d25;fill-opacity:1;fill-rule:nonzero;stroke:none"
         id="path62" /><path
         d="m 1477.95,278.691 c -5.45,-5.82 -18.9,-6.691 -27.35,1.438 -8.98,8.41 -8.13,19.32 -1.41,26.41 6.73,7.09 21.11,4.859 28.67,-3.75 7.5,-8.277 5.55,-18.258 0.09,-24.098 z m -92.54,-107.25 c 8.14,27.43 33.44,73.528 48.36,94.387 3.66,4.844 6.84,6.371 11.09,3.762 7.93,-4.602 13.93,-19.199 5.08,-38.442 -7.72,-16.957 -24.18,-43.777 -31.61,-62.839 -8.43,-22.079 -5.43,-36.02 9.61,-32.77 21.31,3.449 44,30.832 54.73,57.191 1.9,3.52 5.28,3.649 7.58,1.098 4.62,-5.078 4.27,-12.68 -0.14,-22.308 -11.09,-23.899 -38.86,-43.032 -65.44,-46.879 -36.09,-5.231 -48.38,15.988 -39.26,46.8"
         style="fill:#e31d25;fill-opacity:1;fill-rule:nonzero;stroke:none"
         id="path64" /><path
         d="m 1600.47,343.211 c -6.58,1.918 -36.06,-42.27 -62.28,-92.09 -3.45,-6.25 -6.43,-12.449 -8.94,-18.562 59.37,48.523 77.79,108.722 71.22,110.652 z m -70.98,-192.582 c 23,1.891 52.56,32.062 67.14,61.859 2.66,5.071 7.83,6.16 10.45,1.524 3.19,-5.293 2.41,-13.321 -1.59,-22.524 -5.11,-11.539 -35.53,-45.777 -73.61,-50.59 -32.87,-4.046 -52.89,10.313 -47.48,49.922 8.69,63.84 53.57,135.41 96.59,179.758 6.3,6.672 12.85,8.344 20.16,4.731 15.09,-7.161 19.83,-19.778 16.54,-37.161 -8.44,-45.449 -55.49,-95.41 -94.79,-121.968 -13.98,-37.258 -14.97,-67.239 6.59,-65.551"
         style="fill:#e31d25;fill-opacity:1;fill-rule:nonzero;stroke:none"
         id="path66" /><path
         d="m 10.8398,1451.2 87.5743,5.56 c 1.8949,-14.43 5.7579,-25.43 11.5819,-32.99 9.477,-12.23 23.027,-18.35 40.633,-18.35 13.141,0 23.266,3.13 30.383,9.38 7.109,6.26 10.664,13.51 10.664,21.75 0,7.84 -3.387,14.85 -10.156,21.04 -6.778,6.18 -22.493,12.02 -47.145,17.52 -40.3672,9.21 -69.1523,21.44 -86.3516,36.7 -17.3437,15.26 -26.0117,34.71 -26.0117,58.35 0,15.54 4.4375,30.21 13.3125,44.02 8.8711,13.82 22.211,24.68 40.0274,32.58 17.8086,7.91 42.2264,11.86 73.2464,11.86 38.066,0 67.086,-7.19 87.07,-21.55 19.977,-14.37 31.867,-37.22 35.66,-68.56 l -86.762,-5.15 c -2.304,13.6 -7.148,23.5 -14.531,29.69 -7.383,6.18 -17.574,9.28 -30.578,9.28 -10.703,0 -18.766,-2.31 -24.18,-6.91 -5.418,-4.61 -8.129,-10.21 -8.129,-16.8 0,-4.82 2.239,-9.14 6.704,-12.99 4.336,-3.99 14.632,-7.7 30.89,-11.13 40.231,-8.8 69.047,-17.71 86.453,-26.71 17.41,-9 30.075,-20.17 38,-33.5 7.922,-13.34 11.883,-28.25 11.883,-44.75 0,-19.38 -5.281,-37.25 -15.848,-53.61 -10.566,-16.35 -25.332,-28.75 -44.292,-37.21 -18.969,-8.45 -42.875,-12.68 -71.727,-12.68 -50.668,0 -85.7501,9.89 -105.254,29.69 -19.5039,19.79 -30.5507,44.95 -33.1172,75.47"
         style="fill:#e31d25;fill-opacity:1;fill-rule:nonzero;stroke:none"
         id="path68" /><path
         d="m 331.063,1653.46 h 92.25 V 1351.2 h -92.25 v 302.26"
         style="fill:#e31d25;fill-opacity:1;fill-rule:nonzero;stroke:none"
         id="path70" /><path
         d="m 582.613,1585.01 v -165.15 h 22.559 c 19.226,0 32.914,2.16 41.039,6.49 8.129,4.33 14.496,11.88 19.102,22.68 4.605,10.79 6.91,28.28 6.91,52.47 0,32.03 -5.153,53.95 -15.446,65.78 -10.293,11.81 -27.363,17.73 -51.203,17.73 z m -92.043,68.45 h 136.743 c 26.96,0 48.734,-3.71 65.328,-11.13 16.593,-7.42 30.308,-18.08 41.148,-31.96 10.836,-13.89 18.691,-30.03 23.57,-48.45 4.875,-18.43 7.313,-37.94 7.313,-58.56 0,-32.3 -3.625,-57.36 -10.867,-75.15 -7.25,-17.81 -17.313,-32.73 -30.176,-44.75 -12.871,-12.03 -26.691,-20.03 -41.449,-24.02 -20.188,-5.5 -38.473,-8.24 -54.867,-8.24 H 490.57 v 302.26"
         style="fill:#e31d25;fill-opacity:1;fill-rule:nonzero;stroke:none"
         id="path72" /><path
         d="M 812.828,1653.46 H 1059.5 v -64.54 H 905.078 v -48.03 h 143.252 v -61.66 H 905.078 v -59.59 H 1063.97 V 1351.2 H 812.828 v 302.26"
         style="fill:#e31d25;fill-opacity:1;fill-rule:nonzero;stroke:none"
         id="path74" /><path
         d="m 1716.77,1585.01 v -165.15 h 22.56 c 19.22,0 32.92,2.16 41.04,6.49 8.13,4.33 14.49,11.88 19.1,22.68 4.6,10.79 6.91,28.28 6.91,52.47 0,32.03 -5.15,53.95 -15.44,65.78 -10.3,11.81 -27.37,17.73 -51.2,17.73 z m -92.04,68.45 h 136.74 c 26.96,0 48.74,-3.71 65.33,-11.13 16.59,-7.42 30.3,-18.08 41.14,-31.96 10.84,-13.89 18.7,-30.03 23.57,-48.45 4.88,-18.43 7.32,-37.94 7.32,-58.56 0,-32.3 -3.62,-57.36 -10.87,-75.15 -7.25,-17.81 -17.31,-32.73 -30.18,-44.75 -12.87,-12.03 -26.69,-20.03 -41.45,-24.02 -20.18,-5.5 -38.47,-8.24 -54.86,-8.24 h -136.74 v 302.26"
         style="fill:#e31d25;fill-opacity:1;fill-rule:nonzero;stroke:none"
         id="path76" /><path
         d="m 2027.65,1501.71 c 0,-30.51 5.59,-52.44 16.76,-65.78 11.18,-13.33 26.38,-20 45.62,-20 19.77,0 35.08,6.53 45.92,19.59 10.84,13.06 16.26,36.5 16.26,70.31 0,28.46 -5.66,49.24 -16.97,62.38 -11.31,13.12 -26.66,19.68 -46.02,19.68 -18.57,0 -33.46,-6.66 -44.71,-20 -11.24,-13.33 -16.86,-35.39 -16.86,-66.18 z m -92.04,0.41 c 0,49.35 13.54,87.77 40.63,115.26 27.09,27.49 64.82,41.24 113.18,41.24 49.57,0 87.78,-13.51 114.6,-40.52 26.82,-27.01 40.23,-64.85 40.23,-113.5 0,-35.33 -5.86,-64.3 -17.58,-86.91 -11.71,-22.62 -28.64,-40.21 -50.79,-52.78 -22.15,-12.58 -49.76,-18.87 -82.8,-18.87 -33.6,0 -61.4,5.43 -83.41,16.29 -22.01,10.86 -39.87,28.04 -53.55,51.55 -13.68,23.5 -20.51,52.91 -20.51,88.24"
         style="fill:#e31d25;fill-opacity:1;fill-rule:nonzero;stroke:none"
         id="path78" /><path
         d="m 2374.29,1501.71 c 0,-30.51 5.59,-52.44 16.76,-65.78 11.18,-13.33 26.38,-20 45.62,-20 19.78,0 35.08,6.53 45.92,19.59 10.84,13.06 16.26,36.5 16.26,70.31 0,28.46 -5.66,49.24 -16.97,62.38 -11.31,13.12 -26.66,19.68 -46.02,19.68 -18.57,0 -33.46,-6.66 -44.71,-20 -11.24,-13.33 -16.86,-35.39 -16.86,-66.18 z m -92.04,0.41 c 0,49.35 13.54,87.77 40.63,115.26 27.09,27.49 64.83,41.24 113.18,41.24 49.57,0 87.78,-13.51 114.6,-40.52 26.82,-27.01 40.23,-64.85 40.23,-113.5 0,-35.33 -5.86,-64.3 -17.58,-86.91 -11.71,-22.62 -28.64,-40.21 -50.79,-52.78 -22.15,-12.58 -49.76,-18.87 -82.8,-18.87 -33.6,0 -61.4,5.43 -83.41,16.29 -22.01,10.86 -39.86,28.04 -53.55,51.55 -13.68,23.5 -20.51,52.91 -20.51,88.24"
         style="fill:#e31d25;fill-opacity:1;fill-rule:nonzero;stroke:none"
         id="path80" /><path
         d="m 2734.14,1530.99 h 38.81 c 4.2,0 12.32,1.37 24.38,4.12 6.1,1.24 11.08,4.4 14.94,9.49 3.85,5.08 5.79,10.92 5.79,17.52 0,9.76 -3.05,17.25 -9.14,22.48 -6.11,5.22 -17.55,7.83 -34.35,7.83 h -40.43 z m -92.45,-179.79 v 302.26 h 153.41 c 28.44,0 50.18,-2.47 65.22,-7.42 15.03,-4.95 27.16,-14.12 36.37,-27.53 9.21,-13.4 13.82,-29.72 13.82,-48.97 0,-16.77 -3.53,-31.23 -10.58,-43.4 -7.04,-12.16 -16.74,-22.03 -29.07,-29.59 -7.86,-4.81 -18.63,-8.79 -32.32,-11.95 10.96,-3.72 18.95,-7.43 23.96,-11.15 3.38,-2.48 8.29,-7.77 14.72,-15.89 6.43,-8.12 10.73,-14.38 12.9,-18.78 l 44.57,-87.58 h -104.01 l -49.2,92.37 c -6.23,11.95 -11.78,19.72 -16.66,23.29 -6.64,4.68 -14.16,7.02 -22.55,7.02 h -8.13 V 1351.2 h -92.45"
         style="fill:#e31d25;fill-opacity:1;fill-rule:nonzero;stroke:none"
         id="path82" /><path
         d="M 239.68,687.109 H 770.484"
         style="fill:none;stroke:#ffffff;stroke-width:11.7091;stroke-linecap:butt;stroke-linejoin:miter;stroke-miterlimit:4;stroke-dasharray:none;stroke-opacity:1"
         id="path84" /><path
         d="M 239.68,627.559 H 770.484"
         style="fill:none;stroke:#ffffff;stroke-width:11.7091;stroke-linecap:butt;stroke-linejoin:miter;stroke-miterlimit:4;stroke-dasharray:none;stroke-opacity:1"
         id="path86" /><path
         d="M 239.68,565.41 H 770.484"
         style="fill:none;stroke:#ffffff;stroke-width:11.7091;stroke-linecap:butt;stroke-linejoin:miter;stroke-miterlimit:4;stroke-dasharray:none;stroke-opacity:1"
         id="path88" /><path
         d="m 2168.7,687.109 h 530.8"
         style="fill:none;stroke:#ffffff;stroke-width:11.7091;stroke-linecap:butt;stroke-linejoin:miter;stroke-miterlimit:4;stroke-dasharray:none;stroke-opacity:1"
         id="path90" /><path
         d="m 2168.7,627.559 h 530.8"
         style="fill:none;stroke:#ffffff;stroke-width:11.7091;stroke-linecap:butt;stroke-linejoin:miter;stroke-miterlimit:4;stroke-dasharray:none;stroke-opacity:1"
         id="path92" /><path
         d="m 2168.7,565.41 h 530.8"
         style="fill:none;stroke:#ffffff;stroke-width:11.7091;stroke-linecap:butt;stroke-linejoin:miter;stroke-miterlimit:4;stroke-dasharray:none;stroke-opacity:1"
         id="path94" /></g></g></svg>
